<svg width="400" height="300" viewBox="0 0 400 300" fill="none" xmlns="http://www.w3.org/2000/svg">
  <!-- Background -->
  <rect width="400" height="300" fill="#ECFDF5"/>
  
  <!-- Spa/leaf elements -->
  <path d="M180 140C180 140 190 120 210 140C210 140 220 120 200 160C200 160 190 180 180 140Z" fill="#10B981"/>
  <path d="M200 160C200 160 210 140 230 160C230 160 240 140 220 180C220 180 210 200 200 160Z" fill="#059669"/>
  
  <!-- Lotus/flower center -->
  <circle cx="200" cy="150" r="8" fill="#F0FDF4"/>
  
  <!-- Zen stones -->
  <ellipse cx="170" cy="180" rx="15" ry="8" fill="#6B7280"/>
  <ellipse cx="230" cy="185" rx="12" ry="6" fill="#9CA3AF"/>
  <ellipse cx="200" cy="190" rx="18" ry="9" fill="#4B5563"/>
  
  <!-- Background circle -->
  <circle cx="200" cy="160" r="60" fill="#D1FAE5"/>
</svg>